<?xml version="1.0" encoding="UTF-8"?>
<svg xmlns="http://www.w3.org/2000/svg" viewBox="0 0 130 160">
    <defs>
        <style>
            .cls-1{fill:#f58622;}.cls-2{fill:#fdcb90;}.cls-3{fill:#f04f24;}.cls-4{fill:#f37c25;}.cls-5{fill:#fdc21b;}.cls-6{fill:#a96761;}.cls-7{fill:#7a2517;}</style>
    </defs>
    <g>
        <path class="cls-5"
            d="M125.16,48.7H44.96c-2.67,0-6.68,1.23-8.95,2.76l-20.73,13.91c-2.27,1.52-4.11,.43-4.11-2.45v-9.02c0-2.88-2.17-5.2-4.84-5.2h-1.49c-2.67,0-4.84,2.33-4.84,5.2v29.4c0,2.87,2.17,5.21,4.84,5.21H83.29c2.67,0,6.68,1.23,8.95,2.76l16.43,11.02c2.27,1.52,4.11,.43,4.11-2.45v-6.13c0-2.87,2.17-5.2,4.84-5.2h7.54c2.67,0,4.84-2.33,4.84-5.21v-29.4c0-2.88-2.17-5.2-4.84-5.2Zm-2.16,11.8c-1.59,0-2.88-1.38-2.88-3.09s1.29-3.09,2.88-3.09,2.88,1.38,2.88,3.09-1.29,3.09-2.88,3.09Z" />
        <path class="cls-3"
            d="M125.16,0h-1.49c-2.67,0-4.84,2.33-4.84,5.21V13.7c0,2.87-1.84,3.97-4.11,2.45L94.77,2.76c-2.27-1.52-6.28-2.76-8.95-2.76H4.84C2.17,0,0,2.33,0,5.21v29.4c0,2.87,2.17,5.21,4.84,5.21h7.54c2.67,0,4.84,2.33,4.84,5.2v6.13c0,2.88,1.84,3.97,4.11,2.45l16.43-11.02c2.27-1.52,6.28-2.76,8.95-2.76H125.16c2.67,0,4.84-2.33,4.84-5.21V5.21c0-2.88-2.17-5.21-4.84-5.21ZM7.19,11.28c-1.59,0-2.88-1.38-2.88-3.09s1.29-3.09,2.88-3.09,2.88,1.38,2.88,3.09-1.29,3.09-2.88,3.09Z" />
        <path class="cls-7"
            d="M125.16,97.39h-1.49c-2.67,0-4.84,2.33-4.84,5.21v8.5c0,2.87-1.84,3.97-4.11,2.45l-19.95-13.39c-2.27-1.52-6.28-2.76-8.95-2.76H4.84c-2.67,0-4.84,2.33-4.84,5.21v29.4c0,2.87,2.17,5.21,4.84,5.21h7.54c2.67,0,4.84,2.33,4.84,5.2v6.13c0,2.88,1.84,3.97,4.11,2.45l16.43-11.02c2.27-1.52,6.28-2.76,8.95-2.76H125.16c2.67,0,4.84-2.33,4.84-5.21v-29.4c0-2.88-2.17-5.21-4.84-5.21ZM7.19,108.67c-1.59,0-2.88-1.38-2.88-3.09s1.29-3.09,2.88-3.09,2.88,1.38,2.88,3.09-1.29,3.09-2.88,3.09Z" />
    </g>
</svg>