<?xml version="1.0" encoding="UTF-8"?><svg id="Layer_2" xmlns="http://www.w3.org/2000/svg" viewBox="0 0 130 210"><defs><style>.cls-1{fill:#f58622;}.cls-2{fill:#fdcb90;}.cls-3{fill:#f04f24;}.cls-4{fill:#f37c25;}.cls-5{fill:#fdc21b;}.cls-6{fill:#a96761;}.cls-7{fill:#7a2517;}</style></defs><g id="Layer_1-2"><g><g><path class="cls-5" d="M125.16,48.7H44.96c-2.67,0-6.68,1.23-8.95,2.76l-20.73,13.91c-2.27,1.52-4.11,.43-4.11-2.45v-9.02c0-2.88-2.17-5.2-4.84-5.2h-1.49c-2.67,0-4.84,2.33-4.84,5.2v29.4c0,2.87,2.17,5.21,4.84,5.21H83.29c2.67,0,6.68,1.23,8.95,2.76l16.43,11.02c2.27,1.52,4.11,.43,4.11-2.45v-6.13c0-2.87,2.17-5.2,4.84-5.2h7.54c2.67,0,4.84-2.33,4.84-5.21v-29.4c0-2.88-2.17-5.2-4.84-5.2Zm-2.16,11.8c-1.59,0-2.88-1.38-2.88-3.09s1.29-3.09,2.88-3.09,2.88,1.38,2.88,3.09-1.29,3.09-2.88,3.09Z"/><path class="cls-3" d="M125.16,0h-1.49c-2.67,0-4.84,2.33-4.84,5.21V13.7c0,2.87-1.84,3.97-4.11,2.45L94.77,2.76c-2.27-1.52-6.28-2.76-8.95-2.76H4.84C2.17,0,0,2.33,0,5.21v29.4c0,2.87,2.17,5.21,4.84,5.21h7.54c2.67,0,4.84,2.33,4.84,5.2v6.13c0,2.88,1.84,3.97,4.11,2.45l16.43-11.02c2.27-1.52,6.28-2.76,8.95-2.76H125.16c2.67,0,4.84-2.33,4.84-5.21V5.21c0-2.88-2.17-5.21-4.84-5.21ZM7.19,11.28c-1.59,0-2.88-1.38-2.88-3.09s1.29-3.09,2.88-3.09,2.88,1.38,2.88,3.09-1.29,3.09-2.88,3.09Z"/><path class="cls-7" d="M125.16,97.39h-1.49c-2.67,0-4.84,2.33-4.84,5.21v8.5c0,2.87-1.84,3.97-4.11,2.45l-19.95-13.39c-2.27-1.52-6.28-2.76-8.95-2.76H4.84c-2.67,0-4.84,2.33-4.84,5.21v29.4c0,2.87,2.17,5.21,4.84,5.21h7.54c2.67,0,4.84,2.33,4.84,5.2v6.13c0,2.88,1.84,3.97,4.11,2.45l16.43-11.02c2.27-1.52,6.28-2.76,8.95-2.76H125.16c2.67,0,4.84-2.33,4.84-5.21v-29.4c0-2.88-2.17-5.21-4.84-5.21ZM7.19,108.67c-1.59,0-2.88-1.38-2.88-3.09s1.29-3.09,2.88-3.09,2.88,1.38,2.88,3.09-1.29,3.09-2.88,3.09Z"/></g><g><path class="cls-7" d="M88.16,167.11h-7.77l-6.4,19.15v23.22h.6l3.05-9.99h13.26l3.03,9.93,4.18-12.51-9.96-29.8Zm-8.3,25.12l4.42-14.71,4.42,14.71h-8.84Z"/><path class="cls-3" d="M36.62,176.23c-3.64-6.72-9.68-9.56-16.91-9.56-3.64,0-6.87,.79-9.8,2.3-5.79,2.97-9.92,9.93-9.92,19.37,0,4.72,.9,8.78,2.75,12.1,3.76,6.72,9.74,9.56,16.97,9.56,3.64,0,6.87-.73,9.8-2.24,3.01-1.6,5.56-4.24,7.32-7.72v-23.4c-.07-.14-.14-.28-.21-.42Zm-8.48,22.88c-2.21,2.42-5.02,3.63-8.42,3.63s-6.21-1.21-8.48-3.63c-2.21-2.42-3.35-5.99-3.35-10.77s1.13-8.35,3.35-10.77c2.27-2.42,5.08-3.63,8.48-3.63s6.21,1.21,8.42,3.63c2.27,2.42,3.41,5.99,3.41,10.77s-1.13,8.35-3.41,10.77Z"/><path class="cls-2" d="M115.84,167.11h-7.77l-9.96,29.8,4.18,12.51,3.03-9.93h13.26l3.05,9.99h8.36l-14.16-42.36Zm-8.3,25.12l4.42-14.71,4.42,14.71h-8.84Z"/><polygon class="cls-6" points="93.93 209.43 93.95 209.48 102.28 209.48 102.3 209.43 98.12 196.91 93.93 209.43"/><path class="cls-5" d="M73.99,167.11h-8.72l-9.86,26.45-9.86-26.45h-8.72v9.53c1.71,3.25,2.6,7.16,2.6,11.69s-.96,8.49-2.6,11.71v9.44h7.77v-26.15l8,22.27h5.62l8-22.27v26.15h0l7.76-23.22v-19.15Z"/><polygon class="cls-7" points="66.23 209.48 73.99 209.48 73.99 186.26 66.23 209.48"/><polygon class="cls-4" points="66.23 209.48 73.99 209.48 73.99 186.26 66.23 209.48"/><path class="cls-3" d="M36.83,176.65v23.4c1.64-3.22,2.6-7.17,2.6-11.71s-.89-8.44-2.6-11.69Z"/><path class="cls-1" d="M36.83,176.65v23.4c1.64-3.22,2.6-7.17,2.6-11.71s-.89-8.44-2.6-11.69Z"/></g></g></g></svg>